<?xml version="1.0" encoding="UTF-8" standalone="no"?>
<svg width="60px" height="60px" viewBox="0 0 60 60" version="1.1" xmlns="http://www.w3.org/2000/svg" xmlns:xlink="http://www.w3.org/1999/xlink">
    <!-- Generator: Sketch 47.1 (45422) - http://www.bohemiancoding.com/sketch -->
    <title>Page 1</title>
    <desc>Created with Sketch.</desc>
    <defs>
        <polygon id="path-1" points="0 60 0 0.102352941 59.8994118 0.102352941 59.8994118 60"></polygon>
        <polygon id="path-3" points="0 60 59.8994118 60 59.8994118 0.102352941 0 0.102352941"></polygon>
    </defs>
    <g id="Page-1" stroke="none" stroke-width="1" fill="none" fill-rule="evenodd">
        <g id="code-screen" transform="translate(-78.000000, -402.000000)">
            <g id="Page-1" transform="translate(78.000000, 402.000000)">
                <g id="Group-3">
                    <mask id="mask-2" fill="white">
                        <use xlink:href="#path-1"></use>
                    </mask>
                    <g id="Clip-2"></g>
                    <path d="M29.9500588,1.76470588 C14.3535882,1.76470588 1.66535294,14.4529412 1.66535294,30.0511765 C1.66535294,45.6476471 14.3535882,58.3376471 29.9500588,58.3376471 C45.5465294,58.3376471 58.2347647,45.6476471 58.2347647,30.0511765 C58.2347647,14.4529412 45.5465294,1.76470588 29.9500588,1.76470588 M29.9500588,60 C13.4359412,60 -0.000529411765,46.5652941 -0.000529411765,30.0511765 C-0.000529411765,13.5370588 13.4359412,0.102352941 29.9500588,0.102352941 C46.4641765,0.102352941 59.9006471,13.5370588 59.9006471,30.0511765 C59.9006471,46.5652941 46.4641765,60 29.9500588,60" id="Fill-1" fill="#212121" mask="url(#mask-2)"></path>
                </g>
                <g id="Group-26">
                    <path d="M16.7147647,31.8155294 C16.6035882,31.8155294 16.4906471,31.7943529 16.3812353,31.7502353 C15.9312353,31.5649412 15.7141765,31.0496471 15.8977059,30.5996471 C16.8365294,28.2984706 21.7618235,16.8155294 26.4206471,16.8155294 C27.4318235,16.8155294 28.1218235,17.1137647 28.6741765,17.3537647 C29.1188824,17.5461176 29.4700588,17.6978824 29.9500588,17.6978824 C30.4371176,17.6978824 30.8324118,18.0931765 30.8324118,18.5802353 C30.8324118,19.0672941 30.4371176,19.4625882 29.9500588,19.4625882 C29.1047647,19.4625882 28.5047647,19.2031765 27.9735882,18.9737647 C27.4865294,18.762 27.0665294,18.5802353 26.4206471,18.5802353 C23.8635882,18.5802353 19.683,25.9990588 17.5318235,31.2667059 C17.3924118,31.6090588 17.0624118,31.8155294 16.7147647,31.8155294 Z" id="Fill-4" fill="#212121"></path>
                    <path d="M26.4206471,31.8155294 L33.4794706,31.8155294 L29.9500588,27.1090588 L26.4206471,31.8155294 Z M35.2441765,33.5802353 L24.6559412,33.5802353 C24.3224118,33.5802353 24.0171176,33.3914118 23.8671176,33.0931765 C23.7171176,32.7931765 23.7488824,32.4367059 23.9500588,32.1684706 L29.2441765,25.1096471 C29.5777059,24.6649412 30.3224118,24.6649412 30.6559412,25.1096471 L35.9500588,32.1684706 C36.1512353,32.4367059 36.183,32.7931765 36.033,33.0931765 C35.883,33.3914118 35.5777059,33.5802353 35.2441765,33.5802353 L35.2441765,33.5802353 Z" id="Fill-6" fill="#212121"></path>
                    <path d="M43.1853529,31.8155294 C42.8377059,31.8155294 42.5077059,31.6090588 42.3682941,31.2667059 C40.3635882,26.3625882 36.1794706,18.5802353 33.4794706,18.5802353 C32.8335882,18.5802353 32.4135882,18.762 31.9265294,18.9737647 C31.3953529,19.2031765 30.7953529,19.4625882 29.9500588,19.4625882 C29.463,19.4625882 29.0677059,19.0672941 29.0677059,18.5802353 C29.0677059,18.0931765 29.463,17.6978824 29.9500588,17.6978824 C30.4300588,17.6978824 30.7812353,17.5461176 31.2259412,17.3537647 C31.7782941,17.1137647 32.4682941,16.8155294 33.4794706,16.8155294 C38.1382941,16.8155294 43.0635882,28.2984706 44.0024118,30.5996471 C44.1859412,31.0496471 43.9688824,31.5649412 43.5188824,31.7502353 C43.4094706,31.7943529 43.2965294,31.8155294 43.1853529,31.8155294" id="Fill-8" fill="#212121"></path>
                    <path d="M28.1853529,10.6390588 L28.1853529,12.4037647 C28.1853529,13.3761176 28.9759412,14.1684706 29.9500588,14.1684706 C30.9241765,14.1684706 31.7147647,13.3761176 31.7147647,12.4037647 L31.7147647,10.6390588 L28.1853529,10.6390588 Z M29.9500588,15.9331765 C28.0035882,15.9331765 26.4206471,14.3502353 26.4206471,12.4037647 L26.4206471,9.75670588 C26.4206471,9.26964706 26.8159412,8.87435294 27.303,8.87435294 L32.5971176,8.87435294 C33.0841765,8.87435294 33.4794706,9.26964706 33.4794706,9.75670588 L33.4794706,12.4037647 C33.4794706,14.3502353 31.8965294,15.9331765 29.9500588,15.9331765 L29.9500588,15.9331765 Z" id="Fill-10" fill="#212121"></path>
                    <path d="M50.2441765,51.2272941 C49.8753529,51.2272941 49.5312353,50.9943529 49.4059412,50.6237647 L46.0053529,40.4167059 L35.7877059,36.1584706 C35.3377059,35.9714118 35.1259412,35.4543529 35.3112353,35.0061176 C35.5000588,34.5543529 36.0188824,34.3425882 36.4653529,34.5314118 L47.0535882,38.9431765 C47.2900588,39.0402353 47.4718235,39.2361176 47.553,39.4778824 L51.0824118,50.0661176 C51.2359412,50.5284706 50.9853529,51.0278824 50.523,51.1814118 C50.4294706,51.2131765 50.3377059,51.2272941 50.2441765,51.2272941" id="Fill-12" fill="#212121"></path>
                    <path d="M9.65594118,51.2272941 C9.56241176,51.2272941 9.47064706,51.2131765 9.37711765,51.1814118 C8.91476471,51.0278824 8.66417647,50.5284706 8.81770588,50.0661176 L12.3471176,39.4778824 C12.4282941,39.2361176 12.6100588,39.0402353 12.8465294,38.9431765 L23.4347647,34.5314118 C23.8812353,34.3443529 24.4000588,34.5543529 24.5888824,35.0061176 C24.7741765,35.4543529 24.5624118,35.9714118 24.1124118,36.1584706 L13.8947647,40.4167059 L10.4941765,50.6237647 C10.3688824,50.9943529 10.0247647,51.2272941 9.65594118,51.2272941" id="Fill-14" fill="#212121"></path>
                    <path d="M36.1265294,36.2272941 C35.7400588,36.2272941 35.3871176,35.9731765 35.2777059,35.5849412 C35.1435882,35.1155294 35.4188824,34.6284706 35.8865294,34.4961176 C39.6947647,33.4196471 41.583,31.5172941 42.2006471,30.7725882 L38.8177059,20.6237647 C38.7894706,20.5337647 38.7735882,20.4402353 38.7735882,20.3449412 L38.7735882,16.8155294 C38.7735882,12.5555294 33.6135882,10.6390588 29.9500588,10.6390588 C26.2865294,10.6390588 21.1265294,12.5555294 21.1265294,16.8155294 L21.1265294,20.3449412 C21.1265294,20.4402353 21.1106471,20.5337647 21.0824118,20.6237647 L17.6994706,30.7725882 C18.3153529,31.5137647 20.2018235,33.4178824 24.0135882,34.4961176 C24.4812353,34.6284706 24.7565294,35.1155294 24.6224118,35.5849412 C24.4900588,36.0525882 23.9994706,36.3296471 23.5335882,36.1937647 C18.0435882,34.6425882 16.0494706,31.5314118 15.9665294,31.4008235 C15.8271176,31.1784706 15.7953529,30.9031765 15.8765294,30.6543529 L19.3618235,20.202 L19.3618235,16.8155294 C19.3618235,11.6572941 24.8182941,8.87435294 29.9500588,8.87435294 C35.0818235,8.87435294 40.5382941,11.6572941 40.5382941,16.8155294 L40.5382941,20.202 L44.0235882,30.6543529 C44.1047647,30.9031765 44.073,31.1784706 43.9335882,31.4008235 C43.8506471,31.5314118 41.8565294,34.6425882 36.3665294,36.1937647 C36.2871176,36.2167059 36.2059412,36.2272941 36.1265294,36.2272941" id="Fill-16" fill="#212121"></path>
                    <path d="M35.2459412,33.5802353 C35.1982941,33.5802353 35.1471176,33.5767059 35.0994706,33.5678824 C34.6194706,33.4884706 34.293,33.0331765 34.3741765,32.5531765 L35.1277059,28.0355294 L29.9500588,26.5567059 L24.7724118,28.0355294 L25.5259412,32.5531765 C25.6071176,33.0331765 25.2824118,33.4884706 24.8006471,33.5678824 C24.3259412,33.6490588 23.8671176,33.3225882 23.7859412,32.8425882 L22.9035882,27.5484706 C22.8294706,27.1072941 23.0994706,26.6784706 23.5300588,26.5549412 L29.7065294,24.7902353 C29.8653529,24.7461176 30.0347647,24.7461176 30.1935882,24.7902353 L36.3700588,26.5549412 C36.8006471,26.6784706 37.0706471,27.1072941 36.9965294,27.5484706 L36.1141765,32.8425882 C36.0418235,33.2749412 35.6677059,33.5802353 35.2459412,33.5802353" id="Fill-18" fill="#212121"></path>
                    <mask id="mask-4" fill="white">
                        <use xlink:href="#path-3"></use>
                    </mask>
                    <g id="Clip-21"></g>
                    <path d="M21.1270588,49.4629412 L37.0094118,49.4629412 L37.0094118,44.1688235 L21.1270588,44.1688235 L21.1270588,49.4629412 Z M37.8917647,51.2276471 L20.2447059,51.2276471 C19.7558824,51.2276471 19.3623529,50.8323529 19.3623529,50.3452941 L19.3623529,43.2864706 C19.3623529,42.7976471 19.7558824,42.4041176 20.2447059,42.4041176 L37.8917647,42.4041176 C38.3788235,42.4041176 38.7741176,42.7976471 38.7741176,43.2864706 L38.7741176,50.3452941 C38.7741176,50.8323529 38.3788235,51.2276471 37.8917647,51.2276471 L37.8917647,51.2276471 Z" id="Fill-20" fill="#212121" mask="url(#mask-4)"></path>
                    <path d="M27.303,47.6978824 L23.7735882,47.6978824 C23.2865294,47.6978824 22.8912353,47.3025882 22.8912353,46.8155294 C22.8912353,46.3284706 23.2865294,45.9331765 23.7735882,45.9331765 L27.303,45.9331765 C27.7900588,45.9331765 28.1853529,46.3284706 28.1853529,46.8155294 C28.1853529,47.3025882 27.7900588,47.6978824 27.303,47.6978824" id="Fill-22" fill="#212121" mask="url(#mask-4)"></path>
                    <path d="M34.3618235,47.6978824 L30.8324118,47.6978824 C30.3453529,47.6978824 29.9500588,47.3025882 29.9500588,46.8155294 C29.9500588,46.3284706 30.3453529,45.9331765 30.8324118,45.9331765 L34.3618235,45.9331765 C34.8488824,45.9331765 35.2441765,46.3284706 35.2441765,46.8155294 C35.2441765,47.3025882 34.8488824,47.6978824 34.3618235,47.6978824" id="Fill-23" fill="#212121" mask="url(#mask-4)"></path>
                    <path d="M27.4787647,22.6387059 L27.4981765,22.6387059 L27.4787647,22.6387059 Z M28.1846471,22.9916471 L24.6552353,22.9916471 C24.3287647,22.9916471 24.027,22.8098824 23.8752353,22.5204706 C23.7217059,22.2310588 23.7428824,21.8798824 23.9281765,21.6098824 C24.2528824,21.1404706 25.1405294,20.3445882 26.4199412,20.3445882 C27.9217059,20.3445882 28.797,21.4545882 28.8922941,21.5798824 C29.0917059,21.8481176 29.1252353,22.2045882 28.9752353,22.5045882 C28.8252353,22.8028235 28.5199412,22.9916471 28.1846471,22.9916471 L28.1846471,22.9916471 Z" id="Fill-24" fill="#212121" mask="url(#mask-4)"></path>
                    <path d="M35.2441765,22.992 L31.7147647,22.992 C31.3812353,22.992 31.0759412,22.8031765 30.9259412,22.5049412 C30.7759412,22.2049412 30.8077059,21.8484706 31.0088824,21.5802353 C31.1024118,21.4531765 31.9777059,20.3449412 33.4794706,20.3449412 C34.7606471,20.3449412 35.6482941,21.1408235 35.9712353,21.6102353 C36.1582941,21.8802353 36.1777059,22.2296471 36.0241765,22.5208235 C35.8724118,22.8102353 35.5724118,22.992 35.2441765,22.992" id="Fill-25" fill="#212121" mask="url(#mask-4)"></path>
                </g>
            </g>
        </g>
    </g>
</svg>