<?xml version="1.0" encoding="UTF-8" standalone="no"?>
<svg width="279px" height="86px" viewBox="0 0 279 86" version="1.1" xmlns="http://www.w3.org/2000/svg" xmlns:xlink="http://www.w3.org/1999/xlink">
    <!-- Generator: Sketch 47.1 (45422) - http://www.bohemiancoding.com/sketch -->
    <title>Let´s match the mood@1x</title>
    <desc>Created with Sketch.</desc>
    <defs></defs>
    <g id="Page-1" stroke="none" stroke-width="1" fill="none" fill-rule="evenodd">
        <g id="iPhone-8-Copy" transform="translate(-49.000000, -107.000000)" stroke="#FFFFFF">
            <path d="M50.36,110.4 L56.792,110.4 L56.792,138.192 L71.288,138.192 L71.288,144 L50.36,144 L50.36,110.4 Z M96.032,121.632 C98.0960103,123.968012 99.128,127.247979 99.128,131.472 C99.128,132.304004 99.1120002,132.927998 99.08,133.344 L80.12,133.344 C80.5360021,135.168009 81.3919935,136.599995 82.688,137.64 C83.9840065,138.680005 85.5759906,139.2 87.464,139.2 C88.7760066,139.2 90.031994,138.952002 91.232,138.456 C92.432006,137.959998 93.4799955,137.248005 94.376,136.32 L97.736,139.824 C96.4559936,141.232007 94.8960092,142.319996 93.056,143.088 C91.2159908,143.856004 89.1760112,144.24 86.936,144.24 C84.3119869,144.24 82.00001,143.696005 80,142.608 C77.99999,141.519995 76.4560054,139.99201 75.368,138.024 C74.2799946,136.05599 73.736,133.792013 73.736,131.232 C73.736,128.671987 74.2879945,126.40001 75.392,124.416 C76.4960055,122.43199 78.0399901,120.888006 80.024,119.784 C82.0080099,118.679994 84.2639874,118.128 86.792,118.128 C90.8880205,118.128 93.9679897,119.295988 96.032,121.632 Z M93.416,129.168 C93.3519997,127.279991 92.7280059,125.776006 91.544,124.656 C90.3599941,123.535994 88.7920098,122.976 86.84,122.976 C85.0159909,122.976 83.4880062,123.527994 82.256,124.632 C81.0239938,125.736006 80.2640014,127.24799 79.976,129.168 L93.416,129.168 Z M119.528,142.416 C117.47999,143.664006 115.336011,144.288 113.096,144.288 C110.887989,144.288 109.080007,143.640006 107.672,142.344 C106.263993,141.047994 105.56,139.136013 105.56,136.608 L105.56,123.936 L101.96,123.936 L101.912,119.376 L105.56,119.376 L105.56,112.32 L111.752,112.32 L111.752,119.376 L119.096,119.376 L119.096,123.936 L111.752,123.936 L111.752,135.504 C111.752,136.688006 111.975998,137.527998 112.424,138.024 C112.872002,138.520002 113.543996,138.768 114.44,138.768 C115.400005,138.768 116.615993,138.416004 118.088,137.712 L119.528,142.416 Z M128.552,107.52 L134.552,109.968 L128.408,114.912 L123.56,114.432 L128.552,107.52 Z M152.576,123.552 C151.247993,123.135998 150.024006,122.928 148.904,122.928 C147.847995,122.928 147.008003,123.111998 146.384,123.48 C145.759997,123.848002 145.448,124.415996 145.448,125.184 C145.448,125.984004 145.839996,126.599998 146.624,127.032 C147.408004,127.464002 148.647992,127.919998 150.344,128.4 C152.136009,128.944003 153.607994,129.479997 154.76,130.008 C155.912006,130.536003 156.911996,131.319995 157.76,132.36 C158.608004,133.400005 159.032,134.767992 159.032,136.464 C159.032,138.960012 158.07201,140.879993 156.152,142.224 C154.23199,143.568007 151.816015,144.24 148.904,144.24 C146.91999,144.24 144.984009,143.928003 143.096,143.304 C141.207991,142.679997 139.608007,141.792006 138.296,140.64 L140.456,136.272 C141.608006,137.264005 142.983992,138.039997 144.584,138.6 C146.184008,139.160003 147.703993,139.44 149.144,139.44 C150.296006,139.44 151.215997,139.240002 151.904,138.84 C152.592003,138.439998 152.936,137.840004 152.936,137.04 C152.936,136.143996 152.536004,135.472002 151.736,135.024 C150.935996,134.575998 149.640009,134.080003 147.848,133.536 C146.119991,133.023997 144.712005,132.520002 143.624,132.024 C142.535995,131.527998 141.592004,130.776005 140.792,129.768 C139.991996,128.759995 139.592,127.440008 139.592,125.808 C139.592,123.279987 140.511991,121.352007 142.352,120.024 C144.192009,118.695993 146.503986,118.032 149.288,118.032 C150.984008,118.032 152.655992,118.271998 154.304,118.752 C155.952008,119.232002 157.415994,119.903996 158.696,120.768 L156.44,125.28 C155.191994,124.543996 153.904007,123.968002 152.576,123.552 Z M216.632,120.744 C218.296008,122.520009 219.128,124.927985 219.128,127.968 L219.128,144 L212.84,144 L212.84,129.792 C212.84,127.967991 212.336005,126.536005 211.328,125.496 C210.319995,124.455995 208.952009,123.936 207.224,123.936 C205.23999,124 203.664006,124.719993 202.496,126.096 C201.327994,127.472007 200.744,129.215989 200.744,131.328 L200.744,144 L194.456,144 L194.456,129.792 C194.456,127.967991 193.960005,126.536005 192.968,125.496 C191.975995,124.455995 190.616009,123.936 188.888,123.936 C186.87199,124 185.280006,124.719993 184.112,126.096 C182.943994,127.472007 182.36,129.215989 182.36,131.328 L182.36,144 L176.12,144 L176.12,118.32 L182.36,118.32 L182.36,123.072 C184.056008,119.807984 187.063978,118.144 191.384,118.08 C193.624011,118.08 195.503992,118.615995 197.024,119.688 C198.544008,120.760005 199.607997,122.27199 200.216,124.224 C201.848008,120.19198 205.031976,118.144 209.768,118.08 C212.680015,118.08 214.967992,118.967991 216.632,120.744 Z M241.256,144 L241.256,140.88 C240.359996,142.000006 239.208007,142.847997 237.8,143.424 C236.391993,144.000003 234.776009,144.288 232.952,144.288 C231.159991,144.288 229.584007,143.944003 228.224,143.256 C226.863993,142.567997 225.816004,141.616006 225.08,140.4 C224.343996,139.183994 223.976,137.824008 223.976,136.32 C223.976,133.919988 224.823992,132.040007 226.52,130.68 C228.216008,129.319993 230.615984,128.624 233.72,128.592 L241.208,128.592 L241.208,127.92 C241.208,126.415992 240.712005,125.248004 239.72,124.416 C238.727995,123.583996 237.288009,123.168 235.4,123.168 C232.967988,123.168 230.424013,123.967992 227.768,125.568 L225.512,121.248 C227.52801,120.127994 229.359992,119.320002 231.008,118.824 C232.656008,118.327998 234.583989,118.08 236.792,118.08 C240.120017,118.08 242.703991,118.879992 244.544,120.48 C246.384009,122.080008 247.32,124.319986 247.352,127.2 L247.4,144 L241.256,144 Z M239.048,138.216 C240.328006,137.367996 241.047999,136.320006 241.208,135.072 L241.208,132.768 L234.728,132.768 C233.063992,132.768 231.840004,133.015998 231.056,133.512 C230.271996,134.008002 229.88,134.815994 229.88,135.936 C229.88,137.024005 230.287996,137.887997 231.104,138.528 C231.920004,139.168003 233.031993,139.488 234.44,139.488 C236.232009,139.488 237.767994,139.064004 239.048,138.216 Z M269.432,142.416 C267.38399,143.664006 265.240011,144.288 263,144.288 C260.791989,144.288 258.984007,143.640006 257.576,142.344 C256.167993,141.047994 255.464,139.136013 255.464,136.608 L255.464,123.936 L251.864,123.936 L251.816,119.376 L255.464,119.376 L255.464,112.32 L261.656,112.32 L261.656,119.376 L269,119.376 L269,123.936 L261.656,123.936 L261.656,135.504 C261.656,136.688006 261.879998,137.527998 262.328,138.024 C262.776002,138.520002 263.447996,138.768 264.344,138.768 C265.304005,138.768 266.519993,138.416004 267.992,137.712 L269.432,142.416 Z M285.272,123.6 C283.19199,123.6 281.504006,124.303993 280.208,125.712 C278.911994,127.120007 278.264,128.943989 278.264,131.184 C278.264,133.488012 278.911994,135.343993 280.208,136.752 C281.504006,138.160007 283.19199,138.864 285.272,138.864 C288.344015,138.864 290.647992,137.85601 292.184,135.84 L296.072,139.056 C294.919994,140.720008 293.400009,141.999996 291.512,142.896 C289.623991,143.792004 287.432012,144.24 284.936,144.24 C282.407987,144.24 280.16001,143.696005 278.192,142.608 C276.22399,141.519995 274.696005,139.99201 273.608,138.024 C272.519995,136.05599 271.976,133.792013 271.976,131.232 C271.976,128.639987 272.527994,126.35201 273.632,124.368 C274.736006,122.38399 276.27199,120.848005 278.24,119.76 C280.20801,118.671995 282.471987,118.128 285.032,118.128 C287.368012,118.128 289.455991,118.535996 291.296,119.352 C293.136009,120.168004 294.631994,121.327992 295.784,122.832 L291.992,126.432 C290.263991,124.543991 288.024014,123.6 285.272,123.6 Z M324.104,120.744 C325.800008,122.520009 326.648,124.927985 326.648,127.968 L326.648,144 L320.36,144 L320.36,129.792 C320.36,127.999991 319.848005,126.584005 318.824,125.544 C317.799995,124.503995 316.408009,123.984 314.648,123.984 C312.56799,124.016 310.920006,124.719993 309.704,126.096 C308.487994,127.472007 307.88,129.231989 307.88,131.376 L307.88,144 L301.64,144 L301.64,108.384 L307.88,108.384 L307.88,123.216 C309.640009,119.855983 312.727978,118.144 317.144,118.08 C320.088015,118.08 322.407992,118.967991 324.104,120.744 Z M77.648,190.416 C75.5999898,191.664006 73.4560112,192.288 71.216,192.288 C69.007989,192.288 67.200007,191.640006 65.792,190.344 C64.383993,189.047994 63.68,187.136013 63.68,184.608 L63.68,171.936 L60.08,171.936 L60.032,167.376 L63.68,167.376 L63.68,160.32 L69.872,160.32 L69.872,167.376 L77.216,167.376 L77.216,171.936 L69.872,171.936 L69.872,183.504 C69.872,184.688006 70.0959978,185.527998 70.544,186.024 C70.9920022,186.520002 71.6639955,186.768 72.56,186.768 C73.5200048,186.768 74.7359926,186.416004 76.208,185.712 L77.648,190.416 Z M105.248,168.744 C106.944008,170.520009 107.792,172.927985 107.792,175.968 L107.792,192 L101.504,192 L101.504,177.792 C101.504,175.999991 100.992005,174.584005 99.968,173.544 C98.9439949,172.503995 97.5520088,171.984 95.792,171.984 C93.7119896,172.016 92.0640061,172.719993 90.848,174.096 C89.6319939,175.472007 89.024,177.231989 89.024,179.376 L89.024,192 L82.784,192 L82.784,156.384 L89.024,156.384 L89.024,171.216 C90.7840088,167.855983 93.8719779,166.144 98.288,166.08 C101.232015,166.08 103.551992,166.967991 105.248,168.744 Z M134.744,169.632 C136.80801,171.968012 137.84,175.247979 137.84,179.472 C137.84,180.304004 137.824,180.927998 137.792,181.344 L118.832,181.344 C119.248002,183.168009 120.103994,184.599995 121.4,185.64 C122.696006,186.680005 124.287991,187.2 126.176,187.2 C127.488007,187.2 128.743994,186.952002 129.944,186.456 C131.144006,185.959998 132.191996,185.248005 133.088,184.32 L136.448,187.824 C135.167994,189.232007 133.608009,190.319996 131.768,191.088 C129.927991,191.856004 127.888011,192.24 125.648,192.24 C123.023987,192.24 120.71201,191.696005 118.712,190.608 C116.71199,189.519995 115.168005,187.99201 114.08,186.024 C112.991995,184.05599 112.448,181.792013 112.448,179.232 C112.448,176.671987 112.999994,174.40001 114.104,172.416 C115.208006,170.43199 116.75199,168.888006 118.736,167.784 C120.72001,166.679994 122.975987,166.128 125.504,166.128 C129.60002,166.128 132.67999,167.295988 134.744,169.632 Z M132.128,177.168 C132.064,175.279991 131.440006,173.776006 130.256,172.656 C129.071994,171.535994 127.50401,170.976 125.552,170.976 C123.727991,170.976 122.200006,171.527994 120.968,172.632 C119.735994,173.736006 118.976001,175.24799 118.688,177.168 L132.128,177.168 Z M195.488,168.744 C197.152008,170.520009 197.984,172.927985 197.984,175.968 L197.984,192 L191.696,192 L191.696,177.792 C191.696,175.967991 191.192005,174.536005 190.184,173.496 C189.175995,172.455995 187.808009,171.936 186.08,171.936 C184.09599,172 182.520006,172.719993 181.352,174.096 C180.183994,175.472007 179.6,177.215989 179.6,179.328 L179.6,192 L173.312,192 L173.312,177.792 C173.312,175.967991 172.816005,174.536005 171.824,173.496 C170.831995,172.455995 169.472009,171.936 167.744,171.936 C165.72799,172 164.136006,172.719993 162.968,174.096 C161.799994,175.472007 161.216,177.215989 161.216,179.328 L161.216,192 L154.976,192 L154.976,166.32 L161.216,166.32 L161.216,171.072 C162.912008,167.807984 165.919978,166.144 170.24,166.08 C172.480011,166.08 174.359992,166.615995 175.88,167.688 C177.400008,168.760005 178.463997,170.27199 179.072,172.224 C180.704008,168.19198 183.887976,166.144 188.624,166.08 C191.536015,166.08 193.823992,166.967991 195.488,168.744 Z M223.208,167.76 C225.24001,168.848005 226.823994,170.37599 227.96,172.344 C229.096006,174.31201 229.664,176.575987 229.664,179.136 C229.664,181.728013 229.096006,184.01599 227.96,186 C226.823994,187.98401 225.24001,189.519995 223.208,190.608 C221.17599,191.696005 218.832013,192.24 216.176,192.24 C213.487987,192.24 211.12001,191.696005 209.072,190.608 C207.02399,189.519995 205.432006,187.98401 204.296,186 C203.159994,184.01599 202.592,181.728013 202.592,179.136 C202.592,176.575987 203.159994,174.31201 204.296,172.344 C205.432006,170.37599 207.02399,168.848005 209.072,167.76 C211.12001,166.671995 213.487987,166.128 216.176,166.128 C218.832013,166.128 221.17599,166.671995 223.208,167.76 Z M210.896,173.616 C209.551993,175.056007 208.88,176.927988 208.88,179.232 C208.88,181.536012 209.551993,183.407993 210.896,184.848 C212.240007,186.288007 213.999989,187.008 216.176,187.008 C218.288011,187.008 220.015993,186.288007 221.36,184.848 C222.704007,183.407993 223.376,181.536012 223.376,179.232 C223.376,176.927988 222.704007,175.056007 221.36,173.616 C220.015993,172.175993 218.288011,171.456 216.176,171.456 C213.999989,171.456 212.240007,172.175993 210.896,173.616 Z M253.352,167.76 C255.38401,168.848005 256.967994,170.37599 258.104,172.344 C259.240006,174.31201 259.808,176.575987 259.808,179.136 C259.808,181.728013 259.240006,184.01599 258.104,186 C256.967994,187.98401 255.38401,189.519995 253.352,190.608 C251.31999,191.696005 248.976013,192.24 246.32,192.24 C243.631987,192.24 241.26401,191.696005 239.216,190.608 C237.16799,189.519995 235.576006,187.98401 234.44,186 C233.303994,184.01599 232.736,181.728013 232.736,179.136 C232.736,176.575987 233.303994,174.31201 234.44,172.344 C235.576006,170.37599 237.16799,168.848005 239.216,167.76 C241.26401,166.671995 243.631987,166.128 246.32,166.128 C248.976013,166.128 251.31999,166.671995 253.352,167.76 Z M241.04,173.616 C239.695993,175.056007 239.024,176.927988 239.024,179.232 C239.024,181.536012 239.695993,183.407993 241.04,184.848 C242.384007,186.288007 244.143989,187.008 246.32,187.008 C248.432011,187.008 250.159993,186.288007 251.504,184.848 C252.848007,183.407993 253.52,181.536012 253.52,179.232 C253.52,176.927988 252.848007,175.056007 251.504,173.616 C250.159993,172.175993 248.432011,171.456 246.32,171.456 C244.143989,171.456 242.384007,172.175993 241.04,173.616 Z M290,156.384 L290,192 L283.76,192 L283.76,187.872 C282.831995,189.312007 281.640007,190.407996 280.184,191.16 C278.727993,191.912004 277.04001,192.288 275.12,192.288 C272.687988,192.288 270.552009,191.736006 268.712,190.632 C266.871991,189.527994 265.440005,187.97601 264.416,185.976 C263.391995,183.97599 262.88,181.680013 262.88,179.088 C262.88,176.527987 263.383995,174.26401 264.392,172.296 C265.400005,170.32799 266.823991,168.800005 268.664,167.712 C270.504009,166.623995 272.607988,166.08 274.976,166.08 C276.92801,166.08 278.639993,166.463996 280.112,167.232 C281.584007,168.000004 282.799995,169.103993 283.76,170.544 L283.76,156.384 L290,156.384 Z M281.72,184.872 C283.080007,183.415993 283.76,181.536012 283.76,179.232 C283.76,176.927988 283.080007,175.048007 281.72,173.592 C280.359993,172.135993 278.608011,171.408 276.464,171.408 C274.319989,171.408 272.576007,172.135993 271.232,173.592 C269.887993,175.048007 269.2,176.927988 269.168,179.232 C269.2,181.536012 269.887993,183.415993 271.232,184.872 C272.576007,186.328007 274.319989,187.056 276.464,187.056 C278.608011,187.056 280.359993,186.328007 281.72,184.872 Z M309.368,171.552 C308.039993,171.135998 306.816006,170.928 305.696,170.928 C304.639995,170.928 303.800003,171.111998 303.176,171.48 C302.551997,171.848002 302.24,172.415996 302.24,173.184 C302.24,173.984004 302.631996,174.599998 303.416,175.032 C304.200004,175.464002 305.439992,175.919998 307.136,176.4 C308.928009,176.944003 310.399994,177.479997 311.552,178.008 C312.704006,178.536003 313.703996,179.319995 314.552,180.36 C315.400004,181.400005 315.824,182.767992 315.824,184.464 C315.824,186.960012 314.86401,188.879993 312.944,190.224 C311.02399,191.568007 308.608015,192.24 305.696,192.24 C303.71199,192.24 301.776009,191.928003 299.888,191.304 C297.999991,190.679997 296.400007,189.792006 295.088,188.64 L297.248,184.272 C298.400006,185.264005 299.775992,186.039997 301.376,186.6 C302.976008,187.160003 304.495993,187.44 305.936,187.44 C307.088006,187.44 308.007997,187.240002 308.696,186.84 C309.384003,186.439998 309.728,185.840004 309.728,185.04 C309.728,184.143996 309.328004,183.472002 308.528,183.024 C307.727996,182.575998 306.432009,182.080003 304.64,181.536 C302.911991,181.023997 301.504005,180.520002 300.416,180.024 C299.327995,179.527998 298.384004,178.776005 297.584,177.768 C296.783996,176.759995 296.384,175.440008 296.384,173.808 C296.384,171.279987 297.303991,169.352007 299.144,168.024 C300.984009,166.695993 303.295986,166.032 306.08,166.032 C307.776008,166.032 309.447992,166.271998 311.096,166.752 C312.744008,167.232002 314.207994,167.903996 315.488,168.768 L313.232,173.28 C311.983994,172.543996 310.696007,171.968002 309.368,171.552 Z" id="Let´s-match-the-mood"></path>
        </g>
    </g>
</svg>